<svg width="590" height="187" viewBox="0 0 590 187" fill="none" xmlns="http://www.w3.org/2000/svg">
<rect width="574.817" height="143.561" transform="matrix(0.997123 -0.0757986 0.117279 0.993099 0 43.5703)" fill="#504E42"/>
<path d="M30.1236 107.304C29.2884 106.139 28.5862 104.963 28.0169 103.777C27.4945 102.534 27.2318 101.218 27.2287 99.8289C27.2694 98.8104 27.1599 97.8835 26.9003 97.0482C26.4124 94.7339 26.5438 92.6665 27.2946 90.8458C28.0924 88.9682 29.0919 87.2088 30.2932 85.5677C31.4945 83.9266 32.9491 82.6136 34.6572 81.6287C36.359 80.5909 38.0967 79.6305 39.8705 78.7475C40.4836 78.4871 41.1687 78.3816 41.9257 78.4309C42.7359 78.4762 43.4867 78.4726 44.178 78.42C44.4282 81.4471 44.6158 84.3988 44.7408 87.2751C44.9191 90.1474 45.2068 93.038 45.604 95.9471C45.9824 98.6972 46.3405 101.502 46.6783 104.362C47.0629 107.166 47.554 109.961 48.1514 112.748C48.5956 112.874 49.0304 112.921 49.4559 112.889C53.1159 112.985 56.2816 113.893 58.9531 115.614C61.6183 117.282 63.8361 119.705 65.6066 122.884C66.1321 123.699 66.5575 124.575 66.8828 125.512C67.2019 126.396 67.3676 127.346 67.3801 128.36C67.4614 129.049 67.5162 129.739 67.5443 130.432C67.6193 131.067 67.7179 131.675 67.8399 132.253C68.4873 134.555 68.3528 136.596 67.4361 138.376C66.5727 140.152 65.5372 141.834 64.3297 143.422C63.1284 145.063 61.6205 146.38 59.8061 147.373C58.0449 148.362 56.0804 148.992 53.9125 149.264C53.5402 149.292 53.1914 149.292 52.8661 149.263C52.547 149.288 52.2608 149.363 52.0074 149.489C51.2535 149.92 50.4965 149.871 49.7363 149.341C49.4986 149.145 49.1905 149.035 48.8119 149.01C48.4929 149.035 48.1941 149.004 47.9157 148.918C44.6311 148.366 42.0316 146.8 40.1172 144.22C39.526 143.303 39.1256 142.185 38.916 140.865C38.7065 139.545 38.6862 138.237 38.8552 136.941C39.0773 135.642 39.4605 134.571 40.0049 133.728C40.6024 132.881 41.203 132.06 41.8068 131.266C42.4106 130.472 43.2286 129.902 44.261 129.557C44.8272 129.353 45.3699 129.178 45.8892 129.032C46.4617 128.882 47.0373 128.758 47.616 128.66C48.0133 129.752 48.2447 130.803 48.3104 131.814C48.376 132.824 48.4949 133.831 48.6669 134.833C48.817 135.196 48.9375 135.534 49.0282 135.847C49.1189 136.161 49.2096 136.475 49.3003 136.789C49.0876 134.988 48.875 133.187 48.6623 131.386C48.4434 129.532 48.1744 127.709 47.8554 125.917C47.6552 124.222 47.405 122.557 47.1048 120.923C46.8514 119.233 46.5918 117.489 46.326 115.692C45.7223 115.578 45.1216 115.49 44.5241 115.428C43.9736 115.31 43.423 115.191 42.8725 115.073C40.3386 114.517 37.9534 113.63 35.7167 112.41C33.5333 111.187 31.6689 109.485 30.1236 107.304ZM44.9757 78.3594C47.0685 78.3606 48.8359 78.7874 50.278 79.6397C52.2832 80.7164 53.9708 82.0577 55.3409 83.6637C56.758 85.2126 57.5243 87.1584 57.64 89.501C57.8933 93.9173 56.1085 97.206 52.2858 99.367C51.4724 99.7495 50.6293 100.108 49.7566 100.441C48.8775 100.722 47.8718 100.611 46.7394 100.109C46.3203 96.5606 45.9247 92.9834 45.5526 89.3778C45.1804 85.7721 44.9881 82.0993 44.9757 78.3594ZM50.0087 142.106L50.4873 142.069C50.3528 141.385 50.1949 140.729 50.0134 140.101C49.8852 139.47 49.7304 138.84 49.549 138.213L50.0087 142.106ZM84.1425 125.803L81.5811 104.114L97.5351 102.901C97.704 103.423 97.8197 103.948 97.8822 104.478C97.9448 105.008 98.0042 105.511 98.0605 105.988C99.1645 113.973 100.195 122.018 101.152 130.122C101.408 132.293 101.618 134.522 101.781 136.807C101.99 139.036 102.176 141.293 102.339 143.579L87.5814 144.7C87.131 142.704 86.6774 140.681 86.2208 138.631C85.8173 136.578 85.3935 134.579 84.9493 132.636C84.6772 130.786 84.463 129.199 84.3066 127.875C84.144 126.498 84.0893 125.807 84.1425 125.803ZM117.125 116.803L117.205 116.797L117.468 119.022C117.552 120.191 117.66 121.332 117.791 122.444C117.916 123.503 117.938 124.597 117.857 125.725C117.788 126.96 117.829 128.213 117.979 129.484C118.129 130.755 118.226 132.03 118.27 133.309C118.348 134.426 118.432 135.595 118.523 136.817C118.607 137.987 118.671 139.211 118.715 140.49C117.22 140.55 115.787 140.686 114.417 140.897C113.047 141.108 111.639 141.001 110.194 140.577C109.477 140.417 108.971 140.215 108.674 139.971C108.43 139.722 108.297 139.278 108.275 138.638C108.172 135.493 108.065 132.322 107.956 129.123C107.847 125.925 107.737 122.727 107.628 119.529L100.58 119.824C100.389 117.755 100.172 115.687 99.9278 113.621C99.6776 111.503 99.4274 109.384 99.1772 107.266C99.2054 107.05 99.2367 106.86 99.2711 106.697C99.2993 106.481 99.3008 106.267 99.2758 106.056C99.2445 105.791 99.1836 105.501 99.0928 105.188C99.0491 104.817 98.9693 104.369 98.8536 103.843C98.9068 103.839 99.0037 103.752 99.1445 103.581C99.2853 103.41 99.462 103.316 99.6748 103.3C100.26 103.255 100.795 103.241 101.28 103.258C101.818 103.271 102.359 103.31 102.903 103.375C103.388 103.392 103.879 103.461 104.376 103.584C104.868 103.653 105.359 103.723 105.85 103.792C106.069 103.829 106.35 103.941 106.694 104.129C107.198 104.304 107.685 104.561 108.154 104.9C110.763 106.091 112.754 107.73 114.127 109.816C115.5 111.903 116.5 114.232 117.125 116.803ZM167.099 113.645C167.121 114.285 167.146 114.951 167.174 115.644C167.196 116.283 167.192 116.925 167.16 117.569C167.151 117.944 167.082 118.269 166.954 118.546C166.819 118.77 166.527 118.793 166.076 118.613C165.282 118.246 164.495 118.172 163.716 118.392C162.984 118.554 162.243 118.637 161.492 118.641C159.931 118.599 158.356 118.666 156.767 118.84C155.224 118.957 153.679 119.048 152.131 119.112C148.921 119.196 145.682 119.255 142.413 119.29C139.197 119.32 135.875 119.359 132.446 119.406C132.471 118.709 132.503 118.066 132.54 117.475C132.625 116.827 132.662 116.237 132.653 115.703C132.5 113.951 132.737 112.33 133.366 110.839C134.048 109.344 134.846 107.921 135.759 106.569C136.538 105.441 137.499 104.486 138.641 103.704C139.836 102.919 141.132 102.313 142.531 101.886C144.342 101.32 146.131 101.024 147.899 100.997C149.713 100.912 151.549 101.013 153.407 101.299C154.662 101.471 155.832 101.837 156.917 102.395C157.997 102.901 159.009 103.519 159.953 104.249C160.957 105.027 161.891 105.892 162.754 106.841C163.671 107.787 164.364 108.883 164.833 110.13C164.983 110.493 165.163 110.88 165.373 111.292C165.629 111.646 165.959 111.942 166.363 112.178C166.594 112.321 166.779 112.521 166.916 112.778C167.101 112.977 167.162 113.267 167.099 113.645ZM133.037 127.137C132.99 127.194 132.893 127.281 132.746 127.399C132.599 127.517 132.402 127.666 132.155 127.845C132.071 127.584 131.992 127.376 131.921 127.222C131.842 127.014 131.817 126.802 131.845 126.586C131.805 125.787 131.764 124.989 131.724 124.19C131.683 123.392 131.639 122.567 131.592 121.715C131.595 121.288 131.605 120.913 131.62 120.591C131.689 120.265 131.986 120.055 132.512 119.962C133.031 119.816 133.413 119.867 133.657 120.116C133.954 120.36 134.181 120.69 134.337 121.106C134.397 121.155 134.43 121.206 134.436 121.259C134.495 121.308 134.588 121.408 134.713 121.558C135.623 121.543 136.557 121.498 137.514 121.426C138.524 121.349 139.538 121.298 140.555 121.275C144.337 121.041 148.092 120.809 151.821 120.578C155.544 120.296 159.269 120.039 162.998 119.809C163.211 119.793 163.427 119.803 163.646 119.84C163.865 119.877 164.08 119.887 164.293 119.871C164.618 119.9 164.967 119.9 165.34 119.871C165.706 119.79 166.151 119.703 166.677 119.609C166.736 119.658 166.855 119.756 167.033 119.903C167.212 120.05 167.317 120.256 167.348 120.52C167.467 121.527 167.462 122.623 167.334 123.808C167.343 124.342 167.299 124.88 167.202 125.421C167.099 125.91 167.025 126.423 166.982 126.961C166.953 127.177 166.852 127.452 166.677 127.786C166.542 128.01 166.411 128.26 166.282 128.537C166.148 128.761 166.043 129.01 165.968 129.283C164.679 131.999 162.88 134.033 160.572 135.384C158.316 136.732 155.768 137.647 152.928 138.13C151.658 138.28 150.381 138.377 149.099 138.421C147.869 138.461 146.624 138.368 145.364 138.144C145.045 138.168 144.796 138.107 144.618 137.96C143.538 137.454 142.456 136.922 141.371 136.363C140.279 135.751 139.214 135.138 138.175 134.522C137.884 134.33 137.611 134.057 137.354 133.702C137.098 133.348 136.871 133.018 136.674 132.712C136.029 131.799 135.412 130.884 134.82 129.967C134.282 129.046 133.688 128.103 133.037 127.137ZM216.644 109.879C216.666 110.519 216.691 111.185 216.719 111.878C216.741 112.517 216.736 113.159 216.705 113.802C216.695 114.177 216.627 114.503 216.498 114.78C216.364 115.004 216.071 115.026 215.621 114.847C214.826 114.48 214.04 114.406 213.261 114.625C212.529 114.788 211.787 114.871 211.036 114.875C209.475 114.833 207.9 114.899 206.311 115.074C204.769 115.191 203.224 115.282 201.675 115.346C198.466 115.429 195.226 115.489 191.957 115.523C188.742 115.554 185.419 115.593 181.991 115.64C182.016 114.943 182.047 114.299 182.085 113.709C182.169 113.061 182.207 112.47 182.197 111.937C182.044 110.185 182.282 108.563 182.911 107.073C183.593 105.578 184.391 104.155 185.304 102.803C186.083 101.675 187.043 100.72 188.185 99.9382C189.38 99.1527 190.677 98.5464 192.075 98.1195C193.886 97.5543 195.676 97.2579 197.443 97.2304C199.258 97.146 201.094 97.2468 202.952 97.5331C204.206 97.705 205.376 98.0703 206.462 98.6291C207.541 99.1349 208.553 99.7527 209.498 100.482C210.502 101.261 211.436 102.125 212.299 103.075C213.216 104.021 213.908 105.117 214.378 106.364C214.528 106.727 214.708 107.114 214.917 107.525C215.174 107.88 215.504 108.176 215.907 108.412C216.139 108.555 216.323 108.755 216.461 109.011C216.645 109.211 216.706 109.5 216.644 109.879ZM182.582 123.37C182.535 123.427 182.438 123.515 182.291 123.633C182.144 123.751 181.947 123.9 181.7 124.079C181.615 123.818 181.537 123.61 181.465 123.455C181.387 123.248 181.362 123.036 181.39 122.82C181.349 122.021 181.309 121.223 181.268 120.424C181.227 119.626 181.184 118.801 181.137 117.949C181.14 117.521 181.149 117.147 181.165 116.825C181.234 116.499 181.531 116.289 182.057 116.196C182.576 116.05 182.957 116.101 183.201 116.349C183.499 116.594 183.725 116.924 183.882 117.34C183.941 117.389 183.974 117.44 183.98 117.493C184.04 117.541 184.132 117.641 184.257 117.792C185.167 117.776 186.101 117.732 187.059 117.659C188.069 117.583 189.082 117.532 190.099 117.508C193.881 117.274 197.637 117.042 201.365 116.812C205.088 116.529 208.814 116.273 212.543 116.043C212.755 116.027 212.971 116.037 213.19 116.074C213.409 116.11 213.625 116.121 213.838 116.105C214.163 116.133 214.512 116.134 214.884 116.105C215.25 116.024 215.696 115.937 216.221 115.843C216.281 115.892 216.4 115.99 216.578 116.137C216.756 116.284 216.861 116.489 216.892 116.754C217.011 117.761 217.007 118.856 216.878 120.042C216.888 120.576 216.844 121.113 216.747 121.655C216.644 122.144 216.57 122.657 216.526 123.195C216.498 123.411 216.396 123.686 216.221 124.02C216.087 124.244 215.955 124.494 215.827 124.771C215.692 124.995 215.588 125.244 215.513 125.516C214.224 128.233 212.425 130.267 210.116 131.618C207.861 132.965 205.313 133.88 202.472 134.364C201.202 134.514 199.926 134.611 198.643 134.655C197.414 134.695 196.169 134.602 194.908 134.377C194.589 134.402 194.341 134.34 194.162 134.194C193.083 133.688 192.001 133.156 190.915 132.597C189.823 131.985 188.758 131.371 187.72 130.755C187.429 130.564 187.155 130.291 186.899 129.936C186.642 129.582 186.415 129.251 186.218 128.946C185.574 128.033 184.956 127.118 184.365 126.201C183.827 125.28 183.232 124.336 182.582 123.37ZM231.945 73.7658C231.685 75.656 231.311 77.7152 230.823 79.9433C230.335 82.1715 229.767 84.4057 229.12 86.6461C228.519 88.8293 227.906 90.9067 227.28 92.8781L222.095 93.2723C222.292 91.761 222.477 90.1437 222.649 88.4205C222.874 86.6933 223.046 84.9701 223.165 83.251C223.331 81.4748 223.45 79.7557 223.522 78.0935C223.647 76.4273 223.735 74.8976 223.785 73.5044L231.283 72.9343L231.945 73.7658ZM265.132 91.8445C267.177 92.8112 268.726 94.1097 269.777 95.7399C270.828 97.3701 271.582 99.2099 272.038 101.259C272.117 101.467 272.171 101.704 272.203 101.968C272.228 102.18 272.256 102.419 272.287 102.683L259.327 103.348C259.133 101.706 258.942 100.091 258.755 98.5016C258.567 96.9127 258.403 95.2952 258.262 93.6493C258.243 93.4904 258.262 93.195 258.318 92.7632C258.287 92.4984 258.229 92.2356 258.145 91.9748C258.113 91.71 258.049 91.3942 257.952 91.0275C258.006 91.0234 258.079 90.9644 258.173 90.8504C258.32 90.7323 258.473 90.6672 258.633 90.6551C259.052 90.5698 259.451 90.5395 259.829 90.5642C260.261 90.5848 260.669 90.6339 261.054 90.7115C261.486 90.7322 261.867 90.7833 262.199 90.865C262.577 90.8897 262.959 90.9408 263.344 91.0184C263.675 91.1001 263.901 91.1899 264.02 91.2877C264.411 91.4183 264.781 91.6039 265.132 91.8445ZM256.695 91.2834C256.967 91.3161 257.192 91.4059 257.371 91.5527C257.543 91.6465 257.591 91.8298 257.516 92.1027C257.259 92.6567 257.216 93.1944 257.385 93.716C257.553 94.2375 257.643 94.7652 257.652 95.2989C257.671 96.3662 257.746 97.4561 257.877 98.5683C258.062 99.6766 258.193 100.789 258.271 101.905C258.427 104.138 258.56 106.399 258.67 108.689C258.773 110.925 258.885 113.241 259.007 115.637C258.516 115.567 258.055 115.522 257.623 115.502C257.238 115.424 256.833 115.401 256.408 115.434C255.172 115.421 254.018 115.188 252.945 114.735C251.866 114.229 250.83 113.64 249.839 112.967C248.966 112.392 248.237 111.673 247.652 110.809C247.12 109.941 246.662 109.013 246.277 108.027C245.861 106.776 245.608 105.54 245.517 104.318C245.42 103.042 245.43 101.759 245.546 100.468C245.718 98.7445 246.373 97.2518 247.512 95.9895C248.022 95.3095 248.591 94.6783 249.22 94.0961C249.902 93.5099 250.656 93.0785 251.482 92.8019C251.735 92.6758 251.988 92.5497 252.242 92.4235C252.489 92.2444 252.703 92.0144 252.885 91.7334C253.16 91.3383 253.517 91.1776 253.954 91.2512C254.386 91.2718 254.844 91.2905 255.329 91.307C255.808 91.2706 256.263 91.2628 256.695 91.2834ZM266.145 109.964C268.078 110.886 269.54 112.137 270.532 113.719C271.523 115.3 272.215 117.064 272.606 119.012C272.812 119.851 272.939 120.697 272.986 121.548C273.086 122.396 273.053 123.253 272.887 124.121C272.918 124.386 272.884 124.549 272.784 124.61C272.44 125.331 272.096 126.052 271.751 126.772C271.401 127.44 270.998 128.112 270.541 128.788C270.406 129.012 270.212 129.187 269.959 129.314C269.765 129.489 269.544 129.666 269.297 129.845C268.697 130.211 268.096 130.577 267.495 130.944C266.895 131.31 266.271 131.705 265.623 132.128C265.683 132.177 265.742 132.226 265.801 132.275C265.867 132.377 265.989 132.501 266.167 132.648C265.961 132.717 265.781 132.784 265.628 132.849C265.528 132.91 265.395 132.92 265.229 132.88C264.697 132.92 264.162 132.934 263.624 132.921C263.086 132.909 262.521 132.898 261.93 132.89C261.664 132.91 261.422 132.902 261.203 132.865C260.984 132.828 260.799 132.628 260.649 132.266C260.527 131.687 260.773 131.268 261.386 131.007C261.439 131.003 261.489 130.973 261.536 130.916C261.589 130.912 261.666 130.879 261.766 130.818C261.691 130.183 261.613 129.52 261.531 128.832C261.456 128.196 261.408 127.559 261.386 126.919C261.139 124.373 260.865 121.828 260.565 119.286C260.265 116.744 259.994 114.226 259.754 111.732C259.722 111.468 259.741 111.172 259.81 110.846C259.779 110.582 259.724 110.345 259.646 110.137C259.614 109.873 259.55 109.557 259.453 109.19C259.507 109.186 259.58 109.127 259.674 109.013C259.821 108.895 259.974 108.83 260.134 108.818C260.5 108.736 260.872 108.708 261.251 108.733C261.629 108.758 262.011 108.809 262.395 108.886C262.774 108.911 263.129 108.964 263.461 109.046C263.786 109.075 264.141 109.128 264.526 109.205C264.632 109.197 264.742 109.216 264.854 109.261C264.967 109.305 265.053 109.352 265.112 109.401L266.145 109.964ZM260.513 129.07C260.545 129.334 260.576 129.599 260.607 129.864C260.692 130.125 260.785 130.465 260.889 130.885C260.842 130.942 260.745 131.029 260.598 131.147C260.504 131.261 260.354 131.353 260.147 131.422C259.722 131.455 259.29 131.434 258.852 131.36C258.42 131.34 257.989 131.319 257.557 131.298C257.119 131.225 256.708 131.149 256.323 131.072C255.944 131.047 255.539 131.024 255.108 131.004C254.995 130.959 254.882 130.914 254.77 130.869C254.657 130.824 254.545 130.779 254.432 130.734C254.207 130.645 253.978 130.528 253.747 130.386C253.575 130.292 253.376 130.2 253.151 130.11C250.992 129.099 249.355 127.727 248.238 125.995C247.115 124.21 246.293 122.241 245.77 120.09C245.686 119.829 245.628 119.567 245.597 119.302C245.565 119.037 245.534 118.772 245.503 118.507L259.43 117.849C259.63 119.544 259.833 121.266 260.039 123.013C260.24 124.708 260.413 126.405 260.56 128.104C260.579 128.263 260.571 128.424 260.537 128.587C260.502 128.75 260.494 128.911 260.513 129.07ZM372.12 124.594C372.182 124.215 372.245 123.836 372.308 123.457C372.43 123.127 372.495 122.775 372.505 122.4C372.567 122.021 372.53 121.703 372.392 121.447C372.308 121.186 372.27 120.868 372.279 120.493C372.336 120.062 372.366 119.632 372.369 119.204C372.372 118.776 372.139 118.393 371.67 118.055C371.61 118.006 371.645 117.843 371.773 117.566C371.901 117.289 372.006 117.04 372.087 116.821C371.415 116.124 371.058 115.376 371.017 114.577C370.977 113.779 370.963 112.978 370.975 112.176C371.007 111.532 371.097 110.937 371.247 110.391C371.391 109.793 371.512 109.222 371.609 108.68C371.65 108.571 371.667 108.489 371.66 108.436C371.654 108.383 371.651 108.357 371.651 108.357C370.866 107.615 370.533 106.838 370.652 106.028C370.764 105.164 370.777 104.362 370.689 103.62C370.442 101.074 370.172 98.5558 369.878 96.0664C369.578 93.5241 369.304 90.9798 369.057 88.4334C368.907 86.2537 368.757 84.0741 368.607 81.8944C368.51 79.7107 368.389 77.5555 368.245 75.4288C368.048 73.3061 367.828 71.212 367.584 69.1463C367.34 67.0807 367.123 65.013 366.932 62.9433C366.894 61.7171 366.807 60.5213 366.669 59.3561C366.525 58.1379 366.405 56.8912 366.308 55.6159C366.289 55.457 366.297 55.2961 366.332 55.1332C366.36 54.9173 366.397 54.7808 366.444 54.7238C368.262 54.2116 370.107 53.9377 371.981 53.9021C373.908 53.8625 375.832 53.7964 377.753 53.7039C379.673 53.6113 381.563 53.2539 383.421 52.6317C383.706 52.7704 383.973 52.9905 384.223 53.2921C384.467 53.5408 384.615 53.877 384.665 54.3007C384.808 56.4274 384.955 58.5806 385.105 60.7602C385.256 62.9399 385.406 65.1196 385.556 67.2992C385.637 67.9878 385.742 68.6478 385.87 69.2794C385.992 69.8579 386.094 70.4915 386.175 71.18C386.191 71.7667 386.259 72.3493 386.381 72.9279C386.503 73.5065 386.359 74.1053 385.95 74.7243C385.875 74.9972 385.896 75.1825 386.015 75.2804C386.7 76.0834 386.924 76.8413 386.686 77.5541C386.448 78.2669 386.247 79.0571 386.081 79.9248C386.769 80.3 387.18 80.8298 387.315 81.5143C387.443 82.1459 387.495 82.81 387.47 83.5066C387.376 87.2546 387.657 91.0008 388.314 94.7451C388.433 95.7515 388.498 96.7619 388.511 97.7763C388.517 98.7377 388.527 99.7257 388.539 100.74L389.027 104.871C389.074 105.723 389.147 106.572 389.247 107.42C389.347 108.267 389.424 109.143 389.477 110.048C389.655 112.011 389.813 114.03 389.951 116.104C390.142 118.174 390.306 120.245 390.443 122.319C390.547 123.647 389.96 124.36 388.684 124.457C387.939 124.513 387.168 124.572 386.37 124.633C385.579 124.746 384.833 124.562 384.132 124.081C384.013 123.984 383.871 123.914 383.705 123.873C383.599 123.881 383.493 123.89 383.386 123.898C382.958 124.358 382.491 124.5 381.988 124.325C381.537 124.145 381.09 123.992 380.646 123.865C380.452 124.04 380.261 124.242 380.073 124.47C379.886 124.698 379.668 124.902 379.421 125.081C379.208 125.097 379.072 125.081 379.013 125.032C378.584 124.583 378.104 124.379 377.572 124.42C377.041 124.46 376.574 124.602 376.174 124.847C375.139 125.62 374.175 125.64 373.284 124.906C373.165 124.808 372.996 124.741 372.777 124.704C372.617 124.716 372.398 124.679 372.12 124.594ZM391.818 122.375C391.549 120.097 391.284 117.846 391.021 115.622C390.752 113.344 390.696 111.051 390.852 108.741C390.871 107.991 390.807 107.221 390.66 106.431C390.507 105.587 390.38 104.742 390.28 103.894C390.277 103.414 390.247 102.935 390.191 102.458C390.188 101.978 390.175 101.417 390.153 100.778C391.796 100.599 393.414 100.45 395.01 100.328C396.652 100.15 398.313 100.131 399.993 100.27C400.143 101.541 400.293 102.813 400.443 104.084C400.647 105.351 400.797 106.622 400.894 107.897C401.044 110.077 401.17 112.285 401.274 114.522C401.371 116.705 401.494 118.887 401.644 121.067C401.71 122.077 401.625 122.725 401.391 123.01C401.162 123.348 400.543 123.555 399.532 123.632L393.869 124.063C393.124 124.119 392.603 124.025 392.306 123.781C392.069 123.585 391.906 123.116 391.818 122.375ZM420.722 98.2937L418.488 98.4635C417.565 98.3733 416.619 98.3116 415.649 98.2785C414.727 98.1883 413.727 98.1307 412.651 98.1056C412.77 97.2949 412.839 96.5148 412.858 95.7652C412.923 94.9586 412.995 94.205 413.073 93.5043C413.418 90.9664 414.234 88.7934 415.523 86.9853C416.865 85.1732 418.525 83.5507 420.502 82.1178C421.396 81.5154 422.297 80.966 423.205 80.4695C424.106 79.92 425.036 79.395 425.997 78.8945C426.144 78.7764 426.43 78.7012 426.855 78.6689C427.121 78.6487 427.39 78.655 427.662 78.6877C427.981 78.6635 428.271 78.6147 428.53 78.5416C431.011 78.1927 433.318 78.4181 435.452 79.2179C437.638 80.0136 439.723 81.0842 441.706 82.4298C444.503 84.3014 446.557 86.9242 447.867 90.2982C448.167 91.0236 448.394 91.8079 448.547 92.6513C448.754 93.4907 448.904 94.3076 448.998 95.1021C449.139 95.8396 449.115 96.3223 448.927 96.5504C448.734 96.7254 448.264 96.8413 447.52 96.8979C444.748 97.0551 442.003 97.2103 439.285 97.3635C436.566 97.5167 433.821 97.672 431.05 97.8292C429.448 97.8975 427.82 97.9679 426.165 98.0402C424.563 98.1085 422.962 98.1768 421.36 98.2452C421.301 98.1962 421.221 98.2023 421.121 98.2633C421.014 98.2714 420.881 98.2815 420.722 98.2937ZM424.4 115.81C421.613 114.472 419.5 112.709 418.061 110.52C416.616 108.279 415.598 105.791 415.006 103.057C414.916 102.743 414.852 102.427 414.814 102.11C414.77 101.739 414.73 101.394 414.692 101.077L432.298 100.219C432.554 102.391 432.814 104.589 433.076 106.814C433.333 108.985 433.563 111.159 433.766 113.334C433.791 113.546 433.789 113.76 433.761 113.976C433.727 114.139 433.722 114.326 433.747 114.538C433.785 114.856 433.822 115.174 433.86 115.492C433.957 115.858 434.063 116.304 434.179 116.83C434.132 116.887 434.008 116.977 433.808 117.099C433.667 117.27 433.491 117.363 433.278 117.379C432.752 117.473 432.191 117.489 431.593 117.427C431.055 117.415 430.514 117.376 429.97 117.31C429.426 117.245 428.881 117.179 428.337 117.114C427.846 117.044 427.355 116.975 426.863 116.905C426.538 116.876 426.23 116.766 425.939 116.575C425.708 116.432 425.45 116.291 425.165 116.152C424.933 116.01 424.678 115.896 424.4 115.81ZM482.611 90.3024C483.48 91.3052 484.353 92.3343 485.229 93.39C486.105 94.4457 486.951 95.4769 487.767 96.4837C489.012 97.9388 490.257 99.3939 491.502 100.849C492.8 102.3 493.981 103.894 495.045 105.63L485.28 113.587C484.929 113.346 484.603 113.077 484.299 112.78C482.988 111.222 481.651 109.667 480.287 108.115C478.97 106.505 477.63 104.923 476.266 103.37C476.185 103.59 476.077 103.812 475.942 104.036C475.802 104.207 475.694 104.429 475.619 104.702C474.796 106.368 474 108.031 473.23 109.693C472.46 111.355 471.495 112.951 470.335 114.482L458.609 108.56C458.696 108.393 458.757 108.228 458.792 108.065C458.873 107.845 458.931 107.654 458.965 107.491C460.254 104.774 461.546 102.084 462.841 99.4205C464.13 96.704 465.446 93.9854 466.788 91.2648C465.978 90.311 465.171 89.3837 464.367 88.4828C463.61 87.525 462.853 86.5672 462.096 85.6094C461.029 84.301 459.989 82.9906 458.976 81.6782C457.956 80.3128 456.909 78.9494 455.836 77.5881L465.151 69.906C466.443 71.3041 467.715 72.7573 468.966 74.2654C470.217 75.7735 471.465 77.2551 472.71 78.7102C472.829 78.8081 472.951 78.9324 473.076 79.0832C473.195 79.1811 473.287 79.2809 473.353 79.3828C473.528 79.0489 473.677 78.7169 473.799 78.387C473.974 78.053 474.149 77.7191 474.324 77.3851C475.066 75.9393 475.81 74.52 476.558 73.1271C477.353 71.6772 478.15 70.2539 478.951 68.857L490.161 74.4979C489.451 76.2085 488.658 77.8987 487.782 79.5686C486.953 81.1814 486.157 82.8451 485.393 84.5598C484.968 85.5006 484.519 86.47 484.047 87.4678C483.568 88.4127 483.089 89.3576 482.611 90.3024ZM519.298 67.0724C518.901 66.8889 518.523 66.8642 518.163 66.9984C517.803 67.1327 517.434 67.1874 517.056 67.1628C516.298 67.1134 515.524 67.1456 514.733 67.2592C513.995 67.3687 513.227 67.4538 512.429 67.5145C510.88 67.5788 509.305 67.645 507.704 67.7134C506.155 67.7776 504.554 67.8459 502.899 67.9183C502.914 67.5965 502.907 67.3031 502.875 67.0383C502.891 66.7165 502.91 66.4211 502.932 66.1523C502.825 65.2518 502.918 64.4432 503.209 63.7264C503.499 63.0095 503.847 62.3151 504.25 61.6431C504.97 60.4662 506.082 59.6602 507.587 59.2252C508.459 58.8916 509.324 58.719 510.182 58.7073C511.032 58.6426 511.922 58.6818 512.851 58.825C513.443 58.8335 514.023 58.9764 514.592 59.2538C515.155 59.4782 515.648 59.7881 516.07 60.1835C516.54 60.5219 516.988 60.9153 517.417 61.3637C517.899 61.808 518.257 62.3419 518.492 62.9654C518.707 63.43 518.987 63.756 519.331 63.9437C519.616 64.0823 519.751 64.3126 519.735 64.6344C519.719 64.9563 519.73 65.2761 519.768 65.5939C519.805 65.9117 519.816 66.2315 519.801 66.5533C519.819 66.7122 519.785 66.8751 519.697 67.0421C519.603 67.1561 519.471 67.1662 519.298 67.0724ZM519.448 73.7946L520.729 86.6833L522.315 100.11C522.69 102.379 522.959 104.657 523.122 106.943C523.284 109.228 523.63 111.473 524.158 113.677L510.757 114.696L505.428 75.0207C505.741 74.9435 506.455 74.8624 507.572 74.7775C508.736 74.6356 510.065 74.5346 511.561 74.4744C513.103 74.3571 514.592 74.2439 516.028 74.1348C517.464 74.0256 518.604 73.9122 519.448 73.7946ZM557.647 69.6082C559.693 70.575 561.241 71.8735 562.292 73.5037C563.343 75.1339 564.097 76.9737 564.554 79.0232C564.632 79.231 564.687 79.4673 564.718 79.7322C564.743 79.944 564.771 80.1824 564.803 80.4472L551.842 81.1117C551.648 79.4698 551.458 77.8544 551.27 76.2654C551.082 74.6765 550.918 73.059 550.777 71.413C550.759 71.2541 550.777 70.9588 550.834 70.527C550.802 70.2622 550.745 69.9993 550.66 69.7386C550.629 69.4737 550.565 69.158 550.468 68.7913C550.521 68.7872 550.594 68.7282 550.688 68.6142C550.835 68.4961 550.989 68.431 551.148 68.4189C551.567 68.3336 551.966 68.3033 552.345 68.3279C552.776 68.3486 553.185 68.3977 553.569 68.4753C554.001 68.4959 554.383 68.5471 554.714 68.6288C555.093 68.6534 555.475 68.7046 555.859 68.7822C556.191 68.8639 556.416 68.9536 556.535 69.0515C556.926 69.1821 557.297 69.3677 557.647 69.6082ZM549.21 69.0472C549.482 69.0799 549.708 69.1697 549.886 69.3165C550.058 69.4103 550.106 69.5936 550.031 69.8665C549.775 70.4204 549.731 70.9582 549.9 71.4797C550.069 72.0013 550.158 72.5289 550.167 73.0626C550.186 74.13 550.261 75.2199 550.392 76.3321C550.577 77.4404 550.708 78.5526 550.787 79.6689C550.943 81.9016 551.076 84.1627 551.185 86.4523C551.288 88.689 551.401 91.0051 551.523 93.4007C551.032 93.3311 550.57 93.2861 550.139 93.2654C549.754 93.1878 549.349 93.1651 548.923 93.1975C547.688 93.1845 546.533 92.9516 545.46 92.4988C544.381 91.993 543.346 91.4037 542.354 90.7309C541.481 90.156 540.752 89.4365 540.168 88.5724C539.636 87.7044 539.177 86.7773 538.793 85.7911C538.377 84.5402 538.123 83.3036 538.033 82.0813C537.936 80.8061 537.945 79.5228 538.061 78.2315C538.233 76.5083 538.888 75.0156 540.027 73.7533C540.537 73.0732 541.106 72.4421 541.735 71.8599C542.417 71.2737 543.171 70.8423 543.997 70.5657C544.25 70.4396 544.504 70.3134 544.757 70.1873C545.004 70.0082 545.219 69.7781 545.4 69.4971C545.675 69.1021 546.032 68.9414 546.47 69.015C546.902 69.0356 547.36 69.0542 547.845 69.0708C548.323 69.0344 548.779 69.0265 549.21 69.0472ZM558.66 87.7278C560.593 88.6497 562.056 89.9012 563.047 91.4825C564.039 93.0638 564.73 94.8283 565.121 96.7758C565.328 97.6152 565.454 98.4606 565.501 99.3121C565.601 100.16 565.568 101.017 565.402 101.885C565.434 102.15 565.399 102.313 565.299 102.374C564.955 103.094 564.611 103.815 564.267 104.536C563.916 105.204 563.513 105.876 563.056 106.552C562.922 106.776 562.728 106.951 562.474 107.077C562.28 107.252 562.06 107.43 561.813 107.609C561.212 107.975 560.611 108.341 560.011 108.708C559.41 109.074 558.786 109.469 558.139 109.892C558.198 109.941 558.257 109.99 558.317 110.039C558.383 110.141 558.505 110.265 558.683 110.412C558.476 110.481 558.296 110.548 558.143 110.613C558.043 110.674 557.91 110.684 557.744 110.643C557.213 110.684 556.678 110.698 556.14 110.685C555.602 110.673 555.037 110.662 554.446 110.654C554.18 110.674 553.937 110.666 553.718 110.629C553.499 110.592 553.315 110.392 553.165 110.03C553.043 109.451 553.288 109.032 553.901 108.771C553.955 108.767 554.005 108.737 554.052 108.68C554.105 108.676 554.181 108.643 554.281 108.582C554.206 107.946 554.128 107.284 554.047 106.596C553.972 105.96 553.923 105.323 553.901 104.683C553.654 102.137 553.381 99.5922 553.081 97.0498C552.78 94.5075 552.51 91.9896 552.269 89.4962C552.238 89.2314 552.257 88.936 552.325 88.6102C552.294 88.3453 552.239 88.109 552.161 87.9012C552.13 87.6364 552.066 87.3206 551.969 86.9539C552.022 86.9498 552.095 86.8908 552.189 86.7768C552.336 86.6587 552.49 86.5937 552.649 86.5815C553.015 86.5003 553.387 86.472 553.766 86.4966C554.144 86.5213 554.526 86.5724 554.911 86.6501C555.289 86.6747 555.644 86.7279 555.976 86.8096C556.301 86.8383 556.656 86.8915 557.041 86.9691C557.148 86.961 557.257 86.9794 557.37 87.0243C557.482 87.0692 557.568 87.1161 557.628 87.165L558.66 87.7278ZM553.029 106.833C553.06 107.098 553.091 107.363 553.122 107.628C553.207 107.889 553.301 108.229 553.404 108.649C553.357 108.706 553.26 108.793 553.113 108.911C553.019 109.025 552.869 109.117 552.663 109.186C552.237 109.218 551.805 109.198 551.368 109.124C550.936 109.103 550.504 109.083 550.072 109.062C549.634 108.989 549.223 108.913 548.838 108.835C548.46 108.811 548.055 108.788 547.623 108.767C547.51 108.723 547.398 108.678 547.285 108.633C547.173 108.588 547.06 108.543 546.947 108.498C546.722 108.408 546.494 108.292 546.262 108.149C546.09 108.056 545.892 107.964 545.666 107.874C543.508 106.862 541.87 105.491 540.754 103.759C539.631 101.973 538.808 100.005 538.286 97.8539C538.201 97.5931 538.143 97.3303 538.112 97.0655C538.081 96.8006 538.049 96.5358 538.018 96.271L551.945 95.6131C552.145 97.308 552.349 99.0294 552.555 100.777C552.755 102.472 552.929 104.169 553.076 105.868C553.094 106.027 553.087 106.188 553.052 106.351C553.018 106.514 553.01 106.675 553.029 106.833Z" fill="#F9ED9B"/>
</svg>
