<svg width="352" height="89" viewBox="0 0 352 89" fill="none" xmlns="http://www.w3.org/2000/svg">
<rect x="1.64568" y="9.83538" width="76" height="77" transform="rotate(-5.87602 1.64568 9.83538)" fill="#F9ED9B" stroke="#504E42" stroke-width="3"/>
<path d="M60.9439 38.0743C61.1056 39.6448 60.9485 41.0599 60.4728 42.3196C60.0132 43.5777 59.3274 44.7036 58.4152 45.6974C57.5175 46.6734 56.4519 47.5275 55.2183 48.2599C53.9831 48.976 52.6795 49.5847 51.3076 50.0858C49.9357 50.587 48.5448 50.9837 47.1351 51.2761C45.7415 51.5668 44.4213 51.7763 43.1747 51.9046C42.2194 52.0029 41.2706 52.0842 40.3282 52.1484C39.3859 52.2127 38.4304 52.2292 37.4618 52.198L38.4844 63.088L32.2237 63.7815C31.6695 58.0791 31.0458 52.4165 30.3527 46.7939C29.6578 41.1551 28.9685 35.4911 28.2848 29.8021C29.411 29.4571 30.6062 29.1459 31.8702 28.8686C33.1343 28.5912 34.4179 28.3446 35.721 28.1287C37.0224 27.8966 38.3191 27.6977 39.611 27.532C40.9029 27.3663 42.1398 27.2226 43.3217 27.101C44.6169 26.9677 45.9311 26.9388 47.2642 27.0143C48.5973 27.0898 49.8854 27.2845 51.1285 27.5983C52.3878 27.9105 53.5786 28.3524 54.7009 28.9241C55.8233 29.4958 56.8214 30.2112 57.6952 31.0703C58.569 31.9293 59.2869 32.9435 59.849 34.1128C60.4257 35.2643 60.7906 36.5848 60.9439 38.0743ZM39.8584 29.9363C39.0327 30.0212 38.2006 30.1233 37.362 30.2423C36.5396 30.3596 35.7205 30.5094 34.9048 30.6915L37.2629 49.7887C38.0356 49.8237 38.8113 49.8093 39.5901 49.7456C40.3689 49.6818 41.1631 49.6082 41.9726 49.5249C43.0574 49.4133 44.1274 49.2377 45.1826 48.9982C46.254 48.757 47.2605 48.4407 48.2019 48.0493C49.1417 47.6417 49.9994 47.1526 50.7752 46.5819C51.5492 45.995 52.1983 45.3065 52.7224 44.5162C53.2609 43.7081 53.6503 42.8009 53.8903 41.7945C54.1286 40.7719 54.1812 39.6129 54.0479 38.3177C53.9246 37.1196 53.6284 36.0702 53.1594 35.1694C52.6887 34.2525 52.0929 33.4712 51.3719 32.8255C50.6655 32.1619 49.8574 31.6233 48.9477 31.2097C48.0363 30.7799 47.0782 30.4531 46.0734 30.2293C45.0687 30.0054 44.0326 29.8748 42.9652 29.8374C41.914 29.7983 40.8784 29.8313 39.8584 29.9363Z" fill="#4F4E44"/>
<rect x="97.0731" y="1.6664" width="77" height="77" transform="rotate(6.44208 97.0731 1.6664)" fill="#F9ED9B" stroke="#504E42" stroke-width="3"/>
<path d="M139.806 56.3974L138.685 63.2731L112.571 60.4227L115.924 25.9377L123.926 25.7847C123.383 28.2785 122.831 30.8451 122.271 33.4845C121.729 36.1095 121.207 38.7696 120.706 41.4648C120.207 44.1439 119.749 46.8194 119.333 49.4913C118.917 52.1633 118.572 54.786 118.297 57.3594L118.174 58.4511C119.019 58.5137 120.044 58.5721 121.25 58.6264C122.458 58.6645 123.749 58.6875 125.124 58.6953C126.501 58.687 127.906 58.649 129.338 58.5815C130.789 58.4996 132.17 58.3771 133.483 58.2141C134.813 58.0367 136.027 57.8052 137.124 57.5196C138.223 57.2178 139.117 56.8437 139.806 56.3974Z" fill="#4F4E44"/>
<rect x="176.905" y="10.3148" width="77" height="77" transform="rotate(-6.45429 176.905 10.3148)" fill="#F9ED9B" stroke="#504E42" stroke-width="3"/>
<path d="M221.062 25.6444C223.262 25.3956 225.238 25.5651 226.992 26.1529C228.744 26.7246 230.3 27.5969 231.661 28.7696C233.021 29.9262 234.202 31.316 235.204 32.9388C236.221 34.5437 237.078 36.2567 237.776 38.0778C238.471 39.8828 239.025 41.7366 239.437 43.6393C239.863 45.5239 240.173 47.3233 240.367 49.0377C240.537 50.5417 240.603 51.9921 240.564 53.3888C240.526 54.7854 240.455 56.0383 240.351 57.1475C240.219 58.4401 240.046 59.6636 239.832 60.8179L232.334 60.3395C232.676 59.1705 232.969 57.8515 233.213 56.3826C233.472 54.9118 233.68 53.4141 233.835 51.8897C231.858 51.9331 229.888 52.0413 227.925 52.2142C225.979 52.3852 224.044 52.5796 222.119 52.7973C220.615 52.9675 219.112 53.1457 217.61 53.332C216.108 53.5183 214.602 53.746 213.093 54.015C213.571 55.3531 214.107 56.6848 214.699 58.0101C215.291 59.3354 215.952 60.6858 216.681 62.0611L209.174 64.3354C208.734 63.6317 208.313 62.803 207.91 61.8494C207.572 61.0359 207.231 60.0426 206.885 58.8696C206.554 57.6786 206.302 56.3229 206.13 54.8027C205.905 52.8134 205.754 50.7584 205.678 48.6376C205.617 46.4988 205.699 44.4011 205.925 42.3445C206.167 40.286 206.599 38.3125 207.22 36.424C207.858 34.5336 208.764 32.8423 209.939 31.3499C211.127 29.8395 212.624 28.5892 214.428 27.5988C216.247 26.5904 218.458 25.939 221.062 25.6444ZM210.932 44.2595C211.084 45.6018 211.28 46.8983 211.52 48.1488C211.758 49.3831 212.05 50.5949 212.398 51.7841C214.026 51.6981 215.642 51.5727 217.245 51.4077C218.864 51.2409 220.498 51.0642 222.148 50.8776C224.105 50.6562 226.069 50.4259 228.04 50.1865C230.026 49.9291 232.013 49.6142 234.002 49.2418C234.09 47.4136 234.044 45.7071 233.865 44.1222C233.735 42.9739 233.508 41.7629 233.184 40.4892C232.876 39.2137 232.464 37.9662 231.95 36.7468C231.433 35.5112 230.81 34.345 230.08 33.2483C229.366 32.1497 228.531 31.2122 227.575 30.4359C226.617 29.6433 225.543 29.0523 224.352 28.6629C223.176 28.2554 221.876 28.1322 220.453 28.2932C219.143 28.4414 217.986 28.7852 216.982 29.3246C215.979 29.864 215.097 30.5452 214.339 31.3681C213.596 32.1892 212.973 33.1197 212.468 34.1596C211.977 35.1815 211.6 36.2643 211.337 37.4079C211.071 38.5354 210.906 39.6843 210.842 40.8545C210.778 42.0247 210.808 43.1597 210.932 44.2595Z" fill="#4F4E44"/>
<rect x="273.498" y="1.89903" width="77" height="77" transform="rotate(6.05079 273.498 1.89903)" fill="#F9ED9B" stroke="#504E42" stroke-width="3"/>
<path d="M327.976 31.0029C327.303 32.7157 326.494 34.5612 325.548 36.5395C324.603 38.5017 323.463 40.4513 322.129 42.3885C320.796 44.3095 319.233 46.157 317.441 47.9311C315.667 49.6908 313.615 51.2163 311.285 52.5079L310.981 63.2534L303.333 61.9764L306.162 51.9649C304.806 51.0191 303.572 49.9226 302.46 48.6754C301.364 47.43 300.368 46.0968 299.471 44.676C298.574 43.2552 297.782 41.7799 297.093 40.2502C296.405 38.7043 295.807 37.1679 295.298 35.6408C294.789 34.1138 294.358 32.6196 294.005 31.1583C293.669 29.6987 293.404 28.3367 293.211 27.0723L300.335 26.1089C300.403 29.0132 300.744 31.8972 301.357 34.761C301.62 35.9837 301.951 37.2626 302.35 38.5979C302.766 39.9187 303.273 41.2408 303.869 42.5643C304.465 43.8878 305.171 45.182 305.986 46.4468C306.801 47.7117 307.748 48.8923 308.827 49.9886C310.387 49.0084 311.746 47.9248 312.903 46.7381C314.06 45.5514 315.059 44.3151 315.899 43.0293C316.74 41.7273 317.445 40.4026 318.014 39.0553C318.582 37.708 319.065 36.3925 319.463 35.109C319.879 33.8109 320.231 32.5797 320.518 31.4154C320.807 30.2348 321.084 29.1594 321.351 28.1893L327.976 31.0029Z" fill="#4F4E44"/>
</svg>
